<?xml version="1.0" standalone="no"?>
<svg xmlns="http://www.w3.org/2000/svg" xmlns:xlink="http://www.w3.org/1999/xlink" width="552pt" height="235pt" viewBox="0.00 0.00 552.09 235">
<g id="graph0" class="graph" transform="translate(4,231) scale(1)" data-name="G">

<polygon fill="white" stroke="none" points="-4,4 -4,-231 548.09,-231 548.09,4 -4,4"/>
<!-- getToken -->
<g id="node1" class="node" pointer-events="visible" data-name="getToken">

<polygon fill="none" stroke="black" points="68.8,-155 0.07,-155 0.07,-119 68.8,-119 68.8,-155"/>
<text text-anchor="middle" x="34.43" y="-132.8" font-family="Times,serif" font-size="14.00">getToken</text>
</g>
<!-- getIdentifierToken -->
<g id="node2" class="node" pointer-events="visible" data-name="getIdentifierToken">

<polygon fill="none" stroke="black" points="341.86,-182 220.95,-182 220.95,-146 341.86,-146 341.86,-182"/>
<text text-anchor="middle" x="281.41" y="-159.8" font-family="Times,serif" font-size="14.00">getIdentifierToken</text>
</g>
<!-- getToken&#45;&gt;getIdentifierToken -->
<g id="edge1" class="edge" data-name="getToken-&gt;getIdentifierToken">

<path fill="none" stroke="black" d="M69.24,-140.73C105.18,-144.69 163.06,-151.07 209.15,-156.15"/>
<polygon fill="black" stroke="black" points="208.76,-159.63 219.09,-157.24 209.53,-152.67 208.76,-159.63"/>
<text text-anchor="middle" x="144.9" y="-159.2" font-family="Times,serif" font-size="14.00">_a-zA-Z\{non-ascii}</text>
</g>
<!-- getStringToken -->
<g id="node3" class="node" pointer-events="visible" data-name="getStringToken">

<polygon fill="none" stroke="black" points="544.14,-227 440.94,-227 440.94,-191 544.14,-191 544.14,-227"/>
<text text-anchor="middle" x="492.54" y="-204.8" font-family="Times,serif" font-size="14.00">getStringToken</text>
</g>
<!-- getToken&#45;&gt;getStringToken -->
<g id="edge2" class="edge" data-name="getToken-&gt;getStringToken">

<path fill="none" stroke="black" d="M54.4,-155.31C63.51,-163.01 75.01,-171.26 86.87,-176 200.14,-221.25 238.17,-196 359.88,-204 382.42,-205.48 407.16,-206.56 429.05,-207.33"/>
<polygon fill="black" stroke="black" points="428.93,-210.83 439.04,-207.67 429.16,-203.84 428.93,-210.83"/>
<text text-anchor="middle" x="281.41" y="-207.2" font-family="Times,serif" font-size="14.00">"</text>
</g>
<!-- getCharToken -->
<g id="node4" class="node" pointer-events="visible" data-name="getCharToken">

<polygon fill="none" stroke="black" points="540.62,-154 444.46,-154 444.46,-118 540.62,-118 540.62,-154"/>
<text text-anchor="middle" x="492.54" y="-131.8" font-family="Times,serif" font-size="14.00">getCharToken</text>
</g>
<!-- getToken&#45;&gt;getCharToken -->
<g id="edge3" class="edge" data-name="getToken-&gt;getCharToken">

<path fill="none" stroke="black" d="M69.22,-133.02C106.35,-128.85 167.79,-122.6 220.93,-120.2 274.63,-117.77 288.2,-117.37 341.88,-120.2 371.9,-121.78 405.17,-125.13 432.7,-128.34"/>
<polygon fill="black" stroke="black" points="432.28,-131.82 442.62,-129.53 433.1,-124.87 432.28,-131.82"/>
<text text-anchor="middle" x="281.41" y="-124.2" font-family="Times,serif" font-size="14.00">'</text>
</g>
<!-- getNumericToken -->
<g id="node5" class="node" pointer-events="visible" data-name="getNumericToken">

<polygon fill="none" stroke="black" points="340.25,-75 222.56,-75 222.56,-39 340.25,-39 340.25,-75"/>
<text text-anchor="middle" x="281.41" y="-52.8" font-family="Times,serif" font-size="14.00">getNumericToken</text>
</g>
<!-- getToken&#45;&gt;getNumericToken -->
<g id="edge4" class="edge" data-name="getToken-&gt;getNumericToken">

<path fill="none" stroke="black" d="M46.77,-118.68C55.9,-105.64 69.97,-88.94 86.87,-80.2 124.9,-60.54 172.61,-54.65 211.14,-53.71"/>
<polygon fill="black" stroke="black" points="210.8,-57.22 220.75,-53.59 210.71,-50.22 210.8,-57.22"/>
<text text-anchor="middle" x="144.9" y="-84.2" font-family="Times,serif" font-size="14.00">0-9.</text>
</g>
<!-- getIdentifierToken&#45;&gt;getStringToken -->
<g id="edge5" class="edge" data-name="getIdentifierToken-&gt;getStringToken">

<path fill="none" stroke="black" d="M342.3,-171.93C367.39,-175.76 396.77,-180.9 422.99,-187.2 425.13,-187.71 427.3,-188.26 429.49,-188.83"/>
<polygon fill="black" stroke="black" points="428.46,-192.18 439.03,-191.47 430.32,-185.43 428.46,-192.18"/>
<text text-anchor="middle" x="391.44" y="-191.2" font-family="Times,serif" font-size="14.00">(L|u|U|u8)"</text>
</g>
<!-- getIdentifierToken&#45;&gt;getCharToken -->
<g id="edge6" class="edge" data-name="getIdentifierToken-&gt;getCharToken">

<path fill="none" stroke="black" d="M342.33,-150.21C348.24,-149.09 354.17,-148.06 359.88,-147.2 383.65,-143.63 410.03,-141.1 432.89,-139.37"/>
<polygon fill="black" stroke="black" points="432.91,-142.87 442.63,-138.66 432.41,-135.89 432.91,-142.87"/>
<text text-anchor="middle" x="391.44" y="-151.2" font-family="Times,serif" font-size="14.00">(L|u|U|u8)'</text>
</g>
<!-- getIntSuffix -->
<g id="node6" class="node" pointer-events="visible" data-name="getIntSuffix">

<polygon fill="none" stroke="black" points="534.2,-90 450.88,-90 450.88,-54 534.2,-54 534.2,-90"/>
<text text-anchor="middle" x="492.54" y="-67.8" font-family="Times,serif" font-size="14.00">getIntSuffix</text>
</g>
<!-- getNumericToken&#45;&gt;getIntSuffix -->
<g id="edge7" class="edge" data-name="getNumericToken-&gt;getIntSuffix">

<path fill="none" stroke="black" d="M340.66,-61.18C371.5,-63.39 409.07,-66.08 439,-68.23"/>
<polygon fill="black" stroke="black" points="438.75,-71.72 448.97,-68.95 439.25,-64.74 438.75,-71.72"/>
</g>
<!-- getFloatSuffix -->
<g id="node7" class="node" pointer-events="visible" data-name="getFloatSuffix">

<polygon fill="none" stroke="black" points="540.92,-36 444.16,-36 444.16,0 540.92,0 540.92,-36"/>
<text text-anchor="middle" x="492.54" y="-13.8" font-family="Times,serif" font-size="14.00">getFloatSuffix</text>
</g>
<!-- getNumericToken&#45;&gt;getFloatSuffix -->
<g id="edge8" class="edge" data-name="getNumericToken-&gt;getFloatSuffix">

<path fill="none" stroke="black" d="M340.66,-46.14C369.36,-40.78 403.9,-34.34 432.68,-28.98"/>
<polygon fill="black" stroke="black" points="433.14,-32.45 442.32,-27.18 431.85,-25.57 433.14,-32.45"/>
</g>
</g>
</svg>