<?xml version="1.0" encoding="UTF-8" standalone="no"?><!DOCTYPE svg PUBLIC "-//W3C//DTD SVG 1.1//EN" "http://www.w3.org/Graphics/SVG/1.1/DTD/svg11.dtd"><!-- Generated by graphviz version 2.40.1 (20161225.0304)
 --><!-- Title: G Pages: 1 --><svg xmlns="http://www.w3.org/2000/svg" xmlns:xlink="http://www.w3.org/1999/xlink" width="901pt" height="676pt" viewBox="0.00 0.00 900.88 675.80">
<g id="graph0" class="graph" transform="scale(1 1) rotate(0) translate(4 671.8)">
<title>G</title>
<polygon fill="#ffffff" stroke="transparent" points="-4,4 -4,-671.8 896.8812,-671.8 896.8812,4 -4,4"/>
<!-- I0 -->
<g id="node1" class="node">
<title>I0</title>
<polygon fill="none" stroke="#000000" points="74.0786,-545 -.0262,-545 -.0262,-369 74.0786,-369 74.0786,-545"/>
<text text-anchor="middle" x="37.0262" y="-528.4" font-family="Times,serif" font-size="14.00" fill="#000000">I0:</text>
<text text-anchor="middle" x="37.0262" y="-511.6" font-family="Times,serif" font-size="14.00" fill="#000000">E→•E+T</text>
<text text-anchor="middle" x="37.0262" y="-494.8" font-family="Times,serif" font-size="14.00" fill="#000000">E→•E-T</text>
<text text-anchor="middle" x="37.0262" y="-478" font-family="Times,serif" font-size="14.00" fill="#000000">E→•T</text>
<text text-anchor="middle" x="37.0262" y="-461.2" font-family="Times,serif" font-size="14.00" fill="#000000">E'→•E</text>
<text text-anchor="middle" x="37.0262" y="-444.4" font-family="Times,serif" font-size="14.00" fill="#000000">F→•(E)</text>
<text text-anchor="middle" x="37.0262" y="-427.6" font-family="Times,serif" font-size="14.00" fill="#000000">F→•num</text>
<text text-anchor="middle" x="37.0262" y="-410.8" font-family="Times,serif" font-size="14.00" fill="#000000">T→•F</text>
<text text-anchor="middle" x="37.0262" y="-394" font-family="Times,serif" font-size="14.00" fill="#000000">T→•T*F</text>
<text text-anchor="middle" x="37.0262" y="-377.2" font-family="Times,serif" font-size="14.00" fill="#000000">T→•T/F</text>
</g>
<!-- I1 -->
<g id="node2" class="node">
<title>I1</title>
<polygon fill="none" stroke="#000000" points="188.7916,-387 114.6868,-387 114.6868,-211 188.7916,-211 188.7916,-387"/>
<text text-anchor="middle" x="151.7392" y="-370.4" font-family="Times,serif" font-size="14.00" fill="#000000">I1:</text>
<text text-anchor="middle" x="151.7392" y="-353.6" font-family="Times,serif" font-size="14.00" fill="#000000">E→•E+T</text>
<text text-anchor="middle" x="151.7392" y="-336.8" font-family="Times,serif" font-size="14.00" fill="#000000">E→•E-T</text>
<text text-anchor="middle" x="151.7392" y="-320" font-family="Times,serif" font-size="14.00" fill="#000000">E→•T</text>
<text text-anchor="middle" x="151.7392" y="-303.2" font-family="Times,serif" font-size="14.00" fill="#000000">F→•(E)</text>
<text text-anchor="middle" x="151.7392" y="-286.4" font-family="Times,serif" font-size="14.00" fill="#000000">F→(•E)</text>
<text text-anchor="middle" x="151.7392" y="-269.6" font-family="Times,serif" font-size="14.00" fill="#000000">F→•num</text>
<text text-anchor="middle" x="151.7392" y="-252.8" font-family="Times,serif" font-size="14.00" fill="#000000">T→•F</text>
<text text-anchor="middle" x="151.7392" y="-236" font-family="Times,serif" font-size="14.00" fill="#000000">T→•T*F</text>
<text text-anchor="middle" x="151.7392" y="-219.2" font-family="Times,serif" font-size="14.00" fill="#000000">T→•T/F</text>
</g>
<!-- I0&#45;&gt;I1 -->
<g id="edge1" class="edge">
<title>I0-&gt;I1</title>
<path fill="none" stroke="#000000" d="M74.2702,-405.7019C85.1996,-390.6484 97.2445,-374.0583 108.5134,-358.5371"/>
<polygon fill="#000000" stroke="#000000" points="111.6391,-360.1892 114.682,-350.0407 105.9746,-356.0765 111.6391,-360.1892"/>
<text text-anchor="middle" x="94.3827" y="-382.2" font-family="Times,serif" font-size="14.00" fill="#000000">(</text>
</g>
<!-- I2 -->
<g id="node3" class="node">
<title>I2</title>
<polygon fill="none" stroke="#000000" points="307.3966,-493.7003 233.2918,-493.7003 233.2918,-418.2997 307.3966,-418.2997 307.3966,-493.7003"/>
<text text-anchor="middle" x="270.3442" y="-477" font-family="Times,serif" font-size="14.00" fill="#000000">I2:</text>
<text text-anchor="middle" x="270.3442" y="-460.2" font-family="Times,serif" font-size="14.00" fill="#000000">E→E•+T</text>
<text text-anchor="middle" x="270.3442" y="-443.4" font-family="Times,serif" font-size="14.00" fill="#000000">E→E•-T</text>
<text text-anchor="middle" x="270.3442" y="-426.6" font-family="Times,serif" font-size="14.00" fill="#000000">E'→E•</text>
</g>
<!-- I0&#45;&gt;I2 -->
<g id="edge2" class="edge">
<title>I0-&gt;I2</title>
<path fill="none" stroke="#000000" d="M74.2541,-456.8404C114.6316,-456.6674 179.1858,-456.3907 223.1066,-456.2025"/>
<polygon fill="#000000" stroke="#000000" points="223.264,-459.7019 233.2489,-456.159 223.2339,-452.702 223.264,-459.7019"/>
<text text-anchor="middle" x="151.7392" y="-460.2" font-family="Times,serif" font-size="14.00" fill="#000000">E</text>
</g>
<!-- I3 -->
<g id="node4" class="node">
<title>I3</title>
<polygon fill="none" stroke="#000000" points="616.0628,-526.6019 559.392,-526.6019 559.392,-485.3981 616.0628,-485.3981 616.0628,-526.6019"/>
<text text-anchor="middle" x="587.7274" y="-510.2" font-family="Times,serif" font-size="14.00" fill="#000000">I3:</text>
<text text-anchor="middle" x="587.7274" y="-493.4" font-family="Times,serif" font-size="14.00" fill="#000000">T→F•</text>
</g>
<!-- I0&#45;&gt;I3 -->
<g id="edge3" class="edge">
<title>I0-&gt;I3</title>
<path fill="none" stroke="#000000" d="M74.1875,-492.6429C106.3695,-520.8675 155.6754,-558.0979 206.7654,-574 328.9937,-612.0444 480.3158,-555.787 549.7129,-524.5281"/>
<polygon fill="#000000" stroke="#000000" points="551.3167,-527.6432 558.9498,-520.2957 548.4008,-521.2794 551.3167,-527.6432"/>
<text text-anchor="middle" x="270.3442" y="-590.2" font-family="Times,serif" font-size="14.00" fill="#000000">F</text>
</g>
<!-- I4 -->
<g id="node5" class="node">
<title>I4</title>
<polygon fill="none" stroke="#000000" points="397.9531,-102.7003 325.1755,-102.7003 325.1755,-27.2997 397.9531,-27.2997 397.9531,-102.7003"/>
<text text-anchor="middle" x="361.5643" y="-86" font-family="Times,serif" font-size="14.00" fill="#000000">I4:</text>
<text text-anchor="middle" x="361.5643" y="-69.2" font-family="Times,serif" font-size="14.00" fill="#000000">E→T•</text>
<text text-anchor="middle" x="361.5643" y="-52.4" font-family="Times,serif" font-size="14.00" fill="#000000">T→T•*F</text>
<text text-anchor="middle" x="361.5643" y="-35.6" font-family="Times,serif" font-size="14.00" fill="#000000">T→T•/F</text>
</g>
<!-- I0&#45;&gt;I4 -->
<g id="edge4" class="edge">
<title>I0-&gt;I4</title>
<path fill="none" stroke="#000000" d="M51.0682,-368.9474C62.519,-313.5801 82.2507,-242.1105 114.713,-185.2 152.6902,-118.6212 162.9071,-90.287 233.318,-60 258.8638,-49.0116 289.9823,-49.9257 315.1684,-53.7485"/>
<polygon fill="#000000" stroke="#000000" points="314.763,-57.23 325.2107,-55.4707 315.9462,-50.3307 314.763,-57.23"/>
<text text-anchor="middle" x="151.7392" y="-190.2" font-family="Times,serif" font-size="14.00" fill="#000000">T</text>
</g>
<!-- I5 -->
<g id="node6" class="node">
<title>I5</title>
<polygon fill="none" stroke="#000000" points="892.968,-412.6019 819.6212,-412.6019 819.6212,-371.3981 892.968,-371.3981 892.968,-412.6019"/>
<text text-anchor="middle" x="856.2946" y="-396.2" font-family="Times,serif" font-size="14.00" fill="#000000">I5:</text>
<text text-anchor="middle" x="856.2946" y="-379.4" font-family="Times,serif" font-size="14.00" fill="#000000">F→num•</text>
</g>
<!-- I0&#45;&gt;I5 -->
<g id="edge5" class="edge">
<title>I0-&gt;I5</title>
<path fill="none" stroke="#000000" d="M54.0207,-545.2012C69.5827,-596.4492 98.6229,-651 151.7392,-651 151.7392,-651 151.7392,-651 722.2308,-651 823.8795,-651 848.5477,-491.7156 854.4606,-422.9742"/>
<polygon fill="#000000" stroke="#000000" points="857.9692,-422.9992 855.2575,-412.7572 850.9904,-422.4548 857.9692,-422.9992"/>
<text text-anchor="middle" x="452.7844" y="-655.2" font-family="Times,serif" font-size="14.00" fill="#000000">num</text>
</g>
<!-- I1&#45;&gt;I1 -->
<g id="edge6" class="edge">
<title>I1-&gt;I1</title>
<path fill="none" stroke="#000000" d="M142.6549,-387.1338C144.2814,-397.9254 147.3095,-405 151.7392,-405 154.577,-405 156.8395,-402.0966 158.5269,-397.1725"/>
<polygon fill="#000000" stroke="#000000" points="162.0051,-397.6625 160.8235,-387.1338 155.1814,-396.1013 162.0051,-397.6625"/>
<text text-anchor="middle" x="151.7392" y="-409.2" font-family="Times,serif" font-size="14.00" fill="#000000">(</text>
</g>
<!-- I1&#45;&gt;I3 -->
<g id="edge8" class="edge">
<title>I1-&gt;I3</title>
<path fill="none" stroke="#000000" d="M163.9456,-387.1113C174.7341,-429.5745 195.0532,-476.8541 233.318,-503 283.5803,-537.3436 467.8689,-520.3901 548.9754,-510.9192"/>
<polygon fill="#000000" stroke="#000000" points="549.739,-514.3531 559.2545,-509.6941 548.9105,-507.4023 549.739,-514.3531"/>
<text text-anchor="middle" x="361.5643" y="-527.2" font-family="Times,serif" font-size="14.00" fill="#000000">F</text>
</g>
<!-- I1&#45;&gt;I4 -->
<g id="edge9" class="edge">
<title>I1-&gt;I4</title>
<path fill="none" stroke="#000000" d="M166.588,-210.7898C176.144,-164.4882 189.9215,-114.123 206.7654,-98.2 235.456,-71.0781 280.6854,-63.9398 314.8613,-62.8985"/>
<polygon fill="#000000" stroke="#000000" points="315.132,-66.3952 325.0821,-62.7557 315.0342,-59.3959 315.132,-66.3952"/>
<text text-anchor="middle" x="211.0417" y="-103.2" font-family="Times,serif" font-size="14.00" fill="#000000">T</text>
</g>
<!-- I1&#45;&gt;I5 -->
<g id="edge10" class="edge">
<title>I1-&gt;I5</title>
<path fill="none" stroke="#000000" d="M172.278,-387.2139C183.1077,-430.2152 196.2826,-476.7403 206.7654,-496 233.9511,-545.9474 268.7687,-538.5179 325.3704,-544 403.6078,-551.5775 585.4527,-547.9768 624.7536,-536 703.7141,-511.9371 782.5341,-453.8438 824.7698,-419.2442"/>
<polygon fill="#000000" stroke="#000000" points="827.2537,-421.7314 832.7183,-412.6546 822.786,-416.3424 827.2537,-421.7314"/>
<text text-anchor="middle" x="520.2559" y="-550.2" font-family="Times,serif" font-size="14.00" fill="#000000">num</text>
</g>
<!-- I6 -->
<g id="node7" class="node">
<title>I6</title>
<polygon fill="none" stroke="#000000" points="307.3966,-337.7003 233.2918,-337.7003 233.2918,-262.2997 307.3966,-262.2997 307.3966,-337.7003"/>
<text text-anchor="middle" x="270.3442" y="-321" font-family="Times,serif" font-size="14.00" fill="#000000">I6:</text>
<text text-anchor="middle" x="270.3442" y="-304.2" font-family="Times,serif" font-size="14.00" fill="#000000">E→E•+T</text>
<text text-anchor="middle" x="270.3442" y="-287.4" font-family="Times,serif" font-size="14.00" fill="#000000">E→E•-T</text>
<text text-anchor="middle" x="270.3442" y="-270.6" font-family="Times,serif" font-size="14.00" fill="#000000">F→(E•)</text>
</g>
<!-- I1&#45;&gt;I6 -->
<g id="edge7" class="edge">
<title>I1-&gt;I6</title>
<path fill="none" stroke="#000000" d="M188.9411,-299.3137C199.7599,-299.4049 211.7238,-299.5058 223.0738,-299.6014"/>
<polygon fill="#000000" stroke="#000000" points="223.2451,-303.1029 233.2743,-299.6875 223.3042,-296.1032 223.2451,-303.1029"/>
<text text-anchor="middle" x="211.0417" y="-303.2" font-family="Times,serif" font-size="14.00" fill="#000000">E</text>
</g>
<!-- I7 -->
<g id="node8" class="node">
<title>I7</title>
<polygon fill="none" stroke="#000000" points="489.8368,-289.6006 415.732,-289.6006 415.732,-164.3994 489.8368,-164.3994 489.8368,-289.6006"/>
<text text-anchor="middle" x="452.7844" y="-273.2" font-family="Times,serif" font-size="14.00" fill="#000000">I7:</text>
<text text-anchor="middle" x="452.7844" y="-256.4" font-family="Times,serif" font-size="14.00" fill="#000000">E→E+•T</text>
<text text-anchor="middle" x="452.7844" y="-239.6" font-family="Times,serif" font-size="14.00" fill="#000000">F→•(E)</text>
<text text-anchor="middle" x="452.7844" y="-222.8" font-family="Times,serif" font-size="14.00" fill="#000000">F→•num</text>
<text text-anchor="middle" x="452.7844" y="-206" font-family="Times,serif" font-size="14.00" fill="#000000">T→•F</text>
<text text-anchor="middle" x="452.7844" y="-189.2" font-family="Times,serif" font-size="14.00" fill="#000000">T→•T*F</text>
<text text-anchor="middle" x="452.7844" y="-172.4" font-family="Times,serif" font-size="14.00" fill="#000000">T→•T/F</text>
</g>
<!-- I2&#45;&gt;I7 -->
<g id="edge11" class="edge">
<title>I2-&gt;I7</title>
<path fill="none" stroke="#000000" d="M307.6479,-429.1045C342.9195,-403.3894 391.3836,-367.206 397.7582,-358 411.8412,-337.6618 406.7701,-326.6721 416.0594,-299.3821"/>
<polygon fill="#000000" stroke="#000000" points="419.3752,-300.5084 419.6225,-289.9165 412.8239,-298.0423 419.3752,-300.5084"/>
<text text-anchor="middle" x="361.5643" y="-419.2" font-family="Times,serif" font-size="14.00" fill="#000000">+</text>
</g>
<!-- I8 -->
<g id="node9" class="node">
<title>I8</title>
<polygon fill="none" stroke="#000000" points="489.4578,-493.6006 416.111,-493.6006 416.111,-368.3994 489.4578,-368.3994 489.4578,-493.6006"/>
<text text-anchor="middle" x="452.7844" y="-477.2" font-family="Times,serif" font-size="14.00" fill="#000000">I8:</text>
<text text-anchor="middle" x="452.7844" y="-460.4" font-family="Times,serif" font-size="14.00" fill="#000000">E→E-•T</text>
<text text-anchor="middle" x="452.7844" y="-443.6" font-family="Times,serif" font-size="14.00" fill="#000000">F→•(E)</text>
<text text-anchor="middle" x="452.7844" y="-426.8" font-family="Times,serif" font-size="14.00" fill="#000000">F→•num</text>
<text text-anchor="middle" x="452.7844" y="-410" font-family="Times,serif" font-size="14.00" fill="#000000">T→•F</text>
<text text-anchor="middle" x="452.7844" y="-393.2" font-family="Times,serif" font-size="14.00" fill="#000000">T→•T*F</text>
<text text-anchor="middle" x="452.7844" y="-376.4" font-family="Times,serif" font-size="14.00" fill="#000000">T→•T/F</text>
</g>
<!-- I2&#45;&gt;I8 -->
<g id="edge12" class="edge">
<title>I2-&gt;I8</title>
<path fill="none" stroke="#000000" d="M307.7039,-450.8805C336.1768,-446.9789 375.5571,-441.5825 406.1053,-437.3965"/>
<polygon fill="#000000" stroke="#000000" points="406.6659,-440.8525 416.0981,-436.0272 405.7155,-433.9173 406.6659,-440.8525"/>
<text text-anchor="middle" x="361.5643" y="-451.2" font-family="Times,serif" font-size="14.00" fill="#000000">-</text>
</g>
<!-- I9 -->
<g id="node10" class="node">
<title>I9</title>
<polygon fill="none" stroke="#000000" points="758.9042,-279.7003 685.5574,-279.7003 685.5574,-204.2997 758.9042,-204.2997 758.9042,-279.7003"/>
<text text-anchor="middle" x="722.2308" y="-263" font-family="Times,serif" font-size="14.00" fill="#000000">I9:</text>
<text text-anchor="middle" x="722.2308" y="-246.2" font-family="Times,serif" font-size="14.00" fill="#000000">F→•(E)</text>
<text text-anchor="middle" x="722.2308" y="-229.4" font-family="Times,serif" font-size="14.00" fill="#000000">F→•num</text>
<text text-anchor="middle" x="722.2308" y="-212.6" font-family="Times,serif" font-size="14.00" fill="#000000">T→T*•F</text>
</g>
<!-- I4&#45;&gt;I9 -->
<g id="edge13" class="edge">
<title>I4-&gt;I9</title>
<path fill="none" stroke="#000000" d="M397.8027,-65.9804C470.2469,-68.7044 629.2893,-78.762 667.6442,-115 692.356,-138.3479 673.3037,-159.2014 686.1243,-194.8218"/>
<polygon fill="#000000" stroke="#000000" points="682.9813,-196.3746 690.1166,-204.2065 689.4227,-193.6344 682.9813,-196.3746"/>
<text text-anchor="middle" x="520.2559" y="-80.2" font-family="Times,serif" font-size="14.00" fill="#000000">*</text>
</g>
<!-- I10 -->
<g id="node11" class="node">
<title>I10</title>
<polygon fill="none" stroke="#000000" points="758.9042,-186.7003 685.5574,-186.7003 685.5574,-111.2997 758.9042,-111.2997 758.9042,-186.7003"/>
<text text-anchor="middle" x="722.2308" y="-170" font-family="Times,serif" font-size="14.00" fill="#000000">I10:</text>
<text text-anchor="middle" x="722.2308" y="-153.2" font-family="Times,serif" font-size="14.00" fill="#000000">F→•(E)</text>
<text text-anchor="middle" x="722.2308" y="-136.4" font-family="Times,serif" font-size="14.00" fill="#000000">F→•num</text>
<text text-anchor="middle" x="722.2308" y="-119.6" font-family="Times,serif" font-size="14.00" fill="#000000">T→T/•F</text>
</g>
<!-- I4&#45;&gt;I10 -->
<g id="edge14" class="edge">
<title>I4-&gt;I10</title>
<path fill="none" stroke="#000000" d="M398.0602,-54.3661C459.2464,-38.843 584.0207,-17.2855 667.6442,-71 679.8418,-78.835 690.089,-90.4574 698.2904,-102.3523"/>
<polygon fill="#000000" stroke="#000000" points="695.5251,-104.5212 703.8993,-111.0115 701.4003,-100.7156 695.5251,-104.5212"/>
<text text-anchor="middle" x="520.2559" y="-42.2" font-family="Times,serif" font-size="14.00" fill="#000000">/</text>
</g>
<!-- I6&#45;&gt;I7 -->
<g id="edge16" class="edge">
<title>I6-&gt;I7</title>
<path fill="none" stroke="#000000" d="M307.3949,-281.2981C313.3578,-278.4788 319.4994,-275.6859 325.3704,-273.2 351.6506,-262.0722 381.6294,-251.1181 405.9029,-242.6711"/>
<polygon fill="#000000" stroke="#000000" points="407.2758,-245.8999 415.5865,-239.3285 404.9917,-239.283 407.2758,-245.8999"/>
<text text-anchor="middle" x="361.5643" y="-277.2" font-family="Times,serif" font-size="14.00" fill="#000000">+</text>
</g>
<!-- I6&#45;&gt;I8 -->
<g id="edge17" class="edge">
<title>I6-&gt;I8</title>
<path fill="none" stroke="#000000" d="M307.6296,-312.2301C313.5622,-314.1664 319.6329,-316.1422 325.3704,-318 357.5117,-328.4075 371.1852,-320.3372 397.7582,-341.2 404.5804,-346.5563 410.7638,-353.0109 416.3107,-359.973"/>
<polygon fill="#000000" stroke="#000000" points="413.7567,-362.4041 422.5302,-368.3436 419.3755,-358.2293 413.7567,-362.4041"/>
<text text-anchor="middle" x="361.5643" y="-345.2" font-family="Times,serif" font-size="14.00" fill="#000000">-</text>
</g>
<!-- I11 -->
<g id="node12" class="node">
<title>I11</title>
<polygon fill="none" stroke="#000000" points="485.941,-349.6019 419.6278,-349.6019 419.6278,-308.3981 485.941,-308.3981 485.941,-349.6019"/>
<text text-anchor="middle" x="452.7844" y="-333.2" font-family="Times,serif" font-size="14.00" fill="#000000">I11:</text>
<text text-anchor="middle" x="452.7844" y="-316.4" font-family="Times,serif" font-size="14.00" fill="#000000">F→(E)•</text>
</g>
<!-- I6&#45;&gt;I11 -->
<g id="edge15" class="edge">
<title>I6-&gt;I11</title>
<path fill="none" stroke="#000000" d="M307.4151,-295.9497C333.1363,-294.2013 367.9881,-293.9585 397.7582,-301.2 401.9116,-302.2103 406.1084,-303.582 410.2338,-305.1777"/>
<polygon fill="#000000" stroke="#000000" points="409.1075,-308.5033 419.6765,-309.2429 411.8756,-302.0739 409.1075,-308.5033"/>
<text text-anchor="middle" x="361.5643" y="-305.2" font-family="Times,serif" font-size="14.00" fill="#000000">)</text>
</g>
<!-- I7&#45;&gt;I1 -->
<g id="edge18" class="edge">
<title>I7-&gt;I1</title>
<path fill="none" stroke="#000000" d="M415.7481,-221.912C371.0302,-217.2491 294.2402,-214.0323 233.318,-236.2 220.6028,-240.8267 208.2739,-248.2087 197.2148,-256.3119"/>
<polygon fill="#000000" stroke="#000000" points="194.8124,-253.7441 189.0199,-262.6153 199.0802,-259.2926 194.8124,-253.7441"/>
<text text-anchor="middle" x="270.3442" y="-241.2" font-family="Times,serif" font-size="14.00" fill="#000000">(</text>
</g>
<!-- I7&#45;&gt;I3 -->
<g id="edge19" class="edge">
<title>I7-&gt;I3</title>
<path fill="none" stroke="#000000" d="M486.2922,-289.7853C487.552,-292.8699 488.734,-295.9516 489.8106,-299 502.96,-336.2318 492.5882,-349.5667 507.8106,-386 521.9053,-419.7341 545.932,-454.038 563.9689,-477.2798"/>
<polygon fill="#000000" stroke="#000000" points="561.3715,-479.6382 570.3136,-485.3205 566.8667,-475.3021 561.3715,-479.6382"/>
<text text-anchor="middle" x="520.2559" y="-435.2" font-family="Times,serif" font-size="14.00" fill="#000000">F</text>
</g>
<!-- I7&#45;&gt;I5 -->
<g id="edge21" class="edge">
<title>I7-&gt;I5</title>
<path fill="none" stroke="#000000" d="M485.9463,-289.9165C487.2986,-292.966 488.5948,-296.0044 489.8106,-299 500.1207,-324.4029 486.5964,-340.6344 507.8106,-358 530.6601,-376.7042 719.5841,-386.6023 809.3145,-390.2868"/>
<polygon fill="#000000" stroke="#000000" points="809.3575,-393.7912 819.4899,-390.6953 809.6384,-386.7968 809.3575,-393.7912"/>
<text text-anchor="middle" x="655.1989" y="-386.2" font-family="Times,serif" font-size="14.00" fill="#000000">num</text>
</g>
<!-- I12 -->
<g id="node13" class="node">
<title>I12</title>
<polygon fill="none" stroke="#000000" points="624.7798,-241.7003 550.675,-241.7003 550.675,-166.2997 624.7798,-166.2997 624.7798,-241.7003"/>
<text text-anchor="middle" x="587.7274" y="-225" font-family="Times,serif" font-size="14.00" fill="#000000">I12:</text>
<text text-anchor="middle" x="587.7274" y="-208.2" font-family="Times,serif" font-size="14.00" fill="#000000">E→E+T•</text>
<text text-anchor="middle" x="587.7274" y="-191.4" font-family="Times,serif" font-size="14.00" fill="#000000">T→T•*F</text>
<text text-anchor="middle" x="587.7274" y="-174.6" font-family="Times,serif" font-size="14.00" fill="#000000">T→T•/F</text>
</g>
<!-- I7&#45;&gt;I12 -->
<g id="edge20" class="edge">
<title>I7-&gt;I12</title>
<path fill="none" stroke="#000000" d="M490.0154,-220.6543C505.6495,-217.9895 524.015,-214.8593 540.5783,-212.0362"/>
<polygon fill="#000000" stroke="#000000" points="541.3482,-215.4555 550.6179,-210.325 540.172,-208.5551 541.3482,-215.4555"/>
<text text-anchor="middle" x="520.2559" y="-222.2" font-family="Times,serif" font-size="14.00" fill="#000000">T</text>
</g>
<!-- I8&#45;&gt;I1 -->
<g id="edge22" class="edge">
<title>I8-&gt;I1</title>
<path fill="none" stroke="#000000" d="M416.0337,-424.0576C390.1509,-418.5517 354.9765,-409.8141 325.3704,-398 281.9297,-380.6653 273.9332,-370.1946 233.318,-347 221.7194,-340.3762 209.2621,-333.1198 197.6607,-326.3001"/>
<polygon fill="#000000" stroke="#000000" points="199.3767,-323.2489 188.9842,-321.188 195.8232,-329.2799 199.3767,-323.2489"/>
<text text-anchor="middle" x="270.3442" y="-393.2" font-family="Times,serif" font-size="14.00" fill="#000000">(</text>
</g>
<!-- I8&#45;&gt;I3 -->
<g id="edge23" class="edge">
<title>I8-&gt;I3</title>
<path fill="none" stroke="#000000" d="M489.3875,-455.8542C495.4623,-459.7153 501.7558,-463.5599 507.8106,-467 521.3344,-474.6837 536.5915,-482.36 550.1228,-488.8446"/>
<polygon fill="#000000" stroke="#000000" points="548.6366,-492.0134 559.1725,-493.1291 551.6319,-485.6866 548.6366,-492.0134"/>
<text text-anchor="middle" x="520.2559" y="-483.2" font-family="Times,serif" font-size="14.00" fill="#000000">F</text>
</g>
<!-- I8&#45;&gt;I5 -->
<g id="edge25" class="edge">
<title>I8-&gt;I5</title>
<path fill="none" stroke="#000000" d="M489.6629,-427.4356C563.2093,-420.3272 728.0169,-404.3983 809.2301,-396.5489"/>
<polygon fill="#000000" stroke="#000000" points="810.0308,-399.9879 819.6477,-395.542 809.3573,-393.0203 810.0308,-399.9879"/>
<text text-anchor="middle" x="655.1989" y="-416.2" font-family="Times,serif" font-size="14.00" fill="#000000">num</text>
</g>
<!-- I13 -->
<g id="node14" class="node">
<title>I13</title>
<polygon fill="none" stroke="#000000" points="624.1162,-334.7003 551.3386,-334.7003 551.3386,-259.2997 624.1162,-259.2997 624.1162,-334.7003"/>
<text text-anchor="middle" x="587.7274" y="-318" font-family="Times,serif" font-size="14.00" fill="#000000">I13:</text>
<text text-anchor="middle" x="587.7274" y="-301.2" font-family="Times,serif" font-size="14.00" fill="#000000">E→E-T•</text>
<text text-anchor="middle" x="587.7274" y="-284.4" font-family="Times,serif" font-size="14.00" fill="#000000">T→T•*F</text>
<text text-anchor="middle" x="587.7274" y="-267.6" font-family="Times,serif" font-size="14.00" fill="#000000">T→T•/F</text>
</g>
<!-- I8&#45;&gt;I13 -->
<g id="edge24" class="edge">
<title>I8-&gt;I13</title>
<path fill="none" stroke="#000000" d="M489.6582,-394.3839C506.4553,-377.7042 526.4623,-357.837 544.0114,-340.4105"/>
<polygon fill="#000000" stroke="#000000" points="546.7358,-342.6377 551.3654,-333.1079 541.8034,-337.6706 546.7358,-342.6377"/>
<text text-anchor="middle" x="520.2559" y="-380.2" font-family="Times,serif" font-size="14.00" fill="#000000">T</text>
</g>
<!-- I9&#45;&gt;I1 -->
<g id="edge26" class="edge">
<title>I9-&gt;I1</title>
<path fill="none" stroke="#000000" d="M690.8304,-204.1848C688.9922,-201.4718 687.2436,-198.7291 685.6442,-196 674.9609,-177.7713 683.3697,-166.1113 667.6442,-152 640.1357,-127.3151 624.6877,-129 587.7274,-129 270.3442,-129 270.3442,-129 270.3442,-129 247.2819,-129 217.5825,-171.6129 193.6728,-214.1693"/>
<polygon fill="#000000" stroke="#000000" points="190.5936,-212.5051 188.8176,-222.9501 196.7195,-215.8924 190.5936,-212.5051"/>
<text text-anchor="middle" x="452.7844" y="-133.2" font-family="Times,serif" font-size="14.00" fill="#000000">(</text>
</g>
<!-- I9&#45;&gt;I5 -->
<g id="edge28" class="edge">
<title>I9-&gt;I5</title>
<path fill="none" stroke="#000000" d="M755.3514,-279.7724C762.4171,-287.7874 769.8497,-296.1863 776.8174,-304 794.6396,-323.9862 814.87,-346.3819 830.4598,-363.5783"/>
<polygon fill="#000000" stroke="#000000" points="827.9596,-366.0314 837.2709,-371.0862 833.1441,-361.3281 827.9596,-366.0314"/>
<text text-anchor="middle" x="789.2627" y="-334.2" font-family="Times,serif" font-size="14.00" fill="#000000">num</text>
</g>
<!-- I14 -->
<g id="node15" class="node">
<title>I14</title>
<polygon fill="none" stroke="#000000" points="892.6834,-262.6019 819.9058,-262.6019 819.9058,-221.3981 892.6834,-221.3981 892.6834,-262.6019"/>
<text text-anchor="middle" x="856.2946" y="-246.2" font-family="Times,serif" font-size="14.00" fill="#000000">I14:</text>
<text text-anchor="middle" x="856.2946" y="-229.4" font-family="Times,serif" font-size="14.00" fill="#000000">T→T*F•</text>
</g>
<!-- I9&#45;&gt;I14 -->
<g id="edge27" class="edge">
<title>I9-&gt;I14</title>
<path fill="none" stroke="#000000" d="M758.8643,-242C774.5296,-242 793.0051,-242 809.6327,-242"/>
<polygon fill="#000000" stroke="#000000" points="809.7054,-245.5001 819.7054,-242 809.7053,-238.5001 809.7054,-245.5001"/>
<text text-anchor="middle" x="789.2627" y="-246.2" font-family="Times,serif" font-size="14.00" fill="#000000">F</text>
</g>
<!-- I10&#45;&gt;I1 -->
<g id="edge29" class="edge">
<title>I10-&gt;I1</title>
<path fill="none" stroke="#000000" d="M707.4766,-111.0155C687.5466,-66.8705 647.4931,0 587.7274,0 361.5643,0 361.5643,0 361.5643,0 282.2043,0 241.0249,-17.4158 206.7654,-89 185.2948,-133.8623 200.5633,-153.3439 190.152,-200.8603"/>
<polygon fill="#000000" stroke="#000000" points="186.7086,-200.2056 187.7089,-210.7531 193.5044,-201.884 186.7086,-200.2056"/>
<text text-anchor="middle" x="452.7844" y="-4.2" font-family="Times,serif" font-size="14.00" fill="#000000">(</text>
</g>
<!-- I10&#45;&gt;I5 -->
<g id="edge31" class="edge">
<title>I10-&gt;I5</title>
<path fill="none" stroke="#000000" d="M754.0239,-186.6009C755.7672,-189.3656 757.3874,-192.1784 758.8174,-195 772.5623,-222.1205 760.8123,-235.1488 776.8174,-261 784.6204,-273.6033 792.693,-271.4331 801.708,-283.2 820.1807,-307.3116 835.1174,-338.6447 844.6657,-361.4897"/>
<polygon fill="#000000" stroke="#000000" points="841.5339,-363.0796 848.5446,-371.0232 848.0178,-360.4414 841.5339,-363.0796"/>
<text text-anchor="middle" x="789.2627" y="-287.2" font-family="Times,serif" font-size="14.00" fill="#000000">num</text>
</g>
<!-- I15 -->
<g id="node16" class="node">
<title>I15</title>
<polygon fill="none" stroke="#000000" points="891.0736,-169.6019 821.5156,-169.6019 821.5156,-128.3981 891.0736,-128.3981 891.0736,-169.6019"/>
<text text-anchor="middle" x="856.2946" y="-153.2" font-family="Times,serif" font-size="14.00" fill="#000000">I15:</text>
<text text-anchor="middle" x="856.2946" y="-136.4" font-family="Times,serif" font-size="14.00" fill="#000000">T→T/F•</text>
</g>
<!-- I10&#45;&gt;I15 -->
<g id="edge30" class="edge">
<title>I10-&gt;I15</title>
<path fill="none" stroke="#000000" d="M758.8643,-149C775.0432,-149 794.2196,-149 811.2621,-149"/>
<polygon fill="#000000" stroke="#000000" points="811.5519,-152.5001 821.5519,-149 811.5518,-145.5001 811.5519,-152.5001"/>
<text text-anchor="middle" x="789.2627" y="-153.2" font-family="Times,serif" font-size="14.00" fill="#000000">F</text>
</g>
<!-- I12&#45;&gt;I9 -->
<g id="edge32" class="edge">
<title>I12-&gt;I9</title>
<path fill="none" stroke="#000000" d="M625.0039,-214.9095C630.9377,-216.6258 637.0111,-218.3704 642.7536,-220 653.4041,-223.0224 664.8721,-226.2262 675.6918,-229.226"/>
<polygon fill="#000000" stroke="#000000" points="674.8328,-232.6198 685.404,-231.9126 676.6991,-225.8732 674.8328,-232.6198"/>
<text text-anchor="middle" x="655.1989" y="-231.2" font-family="Times,serif" font-size="14.00" fill="#000000">*</text>
</g>
<!-- I12&#45;&gt;I10 -->
<g id="edge33" class="edge">
<title>I12-&gt;I10</title>
<path fill="none" stroke="#000000" d="M624.8098,-173.0348C630.5661,-169.2756 636.6388,-165.8389 642.7536,-163.2 653.0008,-158.7778 664.5624,-155.7327 675.6294,-153.636"/>
<polygon fill="#000000" stroke="#000000" points="676.3181,-157.0695 685.602,-151.9647 675.161,-150.1657 676.3181,-157.0695"/>
<text text-anchor="middle" x="655.1989" y="-168.2" font-family="Times,serif" font-size="14.00" fill="#000000">/</text>
</g>
<!-- I13&#45;&gt;I9 -->
<g id="edge34" class="edge">
<title>I13-&gt;I9</title>
<path fill="none" stroke="#000000" d="M624.126,-282.1162C639.9948,-275.6273 658.7897,-267.9418 675.6609,-261.043"/>
<polygon fill="#000000" stroke="#000000" points="677.4041,-264.1115 685.3354,-257.087 674.7546,-257.6323 677.4041,-264.1115"/>
<text text-anchor="middle" x="655.1989" y="-278.2" font-family="Times,serif" font-size="14.00" fill="#000000">*</text>
</g>
<!-- I13&#45;&gt;I10 -->
<g id="edge35" class="edge">
<title>I13-&gt;I10</title>
<path fill="none" stroke="#000000" d="M619.6861,-259.3019C621.5026,-256.5607 623.213,-253.7797 624.7536,-251 636.5684,-229.6825 627.6006,-218.2895 642.7536,-199.2 645.5401,-195.6896 660.5696,-185.9483 676.8219,-175.9701"/>
<polygon fill="#000000" stroke="#000000" points="678.6533,-178.9528 685.3739,-170.7622 675.0125,-172.9741 678.6533,-178.9528"/>
<text text-anchor="middle" x="655.1989" y="-204.2" font-family="Times,serif" font-size="14.00" fill="#000000">/</text>
</g>
</g>
</svg>