<?xml version="1.0" encoding="UTF-8" standalone="no"?><!DOCTYPE svg PUBLIC "-//W3C//DTD SVG 1.1//EN" "http://www.w3.org/Graphics/SVG/1.1/DTD/svg11.dtd"><!-- Generated by graphviz version 2.40.1 (20161225.0304)
 --><!-- Title: G Pages: 1 --><svg xmlns="http://www.w3.org/2000/svg" xmlns:xlink="http://www.w3.org/1999/xlink" width="541pt" height="152pt" viewBox="0.00 0.00 540.82 152.00">
<g id="graph0" class="graph" transform="scale(1 1) rotate(0) translate(4 148)">
<title>G</title>
<polygon fill="#ffffff" stroke="transparent" points="-4,4 -4,-148 536.822,-148 536.822,4 -4,4"/>
<!-- ChatOptions -->
<g id="node1" class="node">
<title>ChatOptions</title>
<polygon fill="none" stroke="#000000" points="350.7094,-144 264.1604,-144 264.1604,-108 350.7094,-108 350.7094,-144"/>
<text text-anchor="middle" x="307.4349" y="-121.8" font-family="Times,serif" font-size="14.00" fill="#000000">ChatOptions</text>
</g>
<!-- Chat -->
<g id="node2" class="node">
<title>Chat</title>
<polygon fill="none" stroke="#000000" points="441.822,-90 387.822,-90 387.822,-54 441.822,-54 441.822,-90"/>
<text text-anchor="middle" x="414.822" y="-67.8" font-family="Times,serif" font-size="14.00" fill="#000000">Chat</text>
</g>
<!-- ChatOptions&#45;&gt;Chat -->
<g id="edge1" class="edge">
<title>ChatOptions-&gt;Chat</title>
<path fill="none" stroke="#000000" d="M343.492,-107.8686C354.7263,-102.2194 367.1194,-95.9874 378.3798,-90.3251"/>
<polygon fill="#000000" stroke="#000000" points="380.1602,-93.3474 387.5219,-85.728 377.0154,-87.0936 380.1602,-93.3474"/>
</g>
<!-- User -->
<g id="node7" class="node">
<title>User</title>
<polygon fill="none" stroke="#000000" stroke-dasharray="5,2" points="532.822,-90 478.822,-90 478.822,-54 532.822,-54 532.822,-90"/>
<text text-anchor="middle" x="505.822" y="-67.8" font-family="Times,serif" font-size="14.00" fill="#000000">User</text>
</g>
<!-- Chat&#45;&gt;User -->
<g id="edge6" class="edge">
<title>Chat-&gt;User</title>
<path fill="none" stroke="#000000" d="M442.125,-65.7547C450.4033,-65.2708 459.6437,-65.1348 468.4625,-65.347"/>
<polygon fill="#000000" stroke="#000000" points="468.4046,-68.8474 478.5383,-65.7558 468.6884,-61.8531 468.4046,-68.8474"/>
</g>
<!-- source -->
<g id="node3" class="node">
<title>source</title>
<polygon fill="none" stroke="#000000" points="54,-90 0,-90 0,-54 54,-54 54,-90"/>
<text text-anchor="middle" x="27" y="-67.8" font-family="Times,serif" font-size="14.00" fill="#000000">source</text>
</g>
<!-- Token[] -->
<g id="node4" class="node">
<title>Token[]</title>
<polygon fill="none" stroke="#000000" points="198.5577,-90 137.3807,-90 137.3807,-54 198.5577,-54 198.5577,-90"/>
<text text-anchor="middle" x="167.9692" y="-67.8" font-family="Times,serif" font-size="14.00" fill="#000000">Token[]</text>
</g>
<!-- source&#45;&gt;Token[] -->
<g id="edge2" class="edge">
<title>source-&gt;Token[]</title>
<path fill="none" stroke="#000000" d="M54.1803,-72C74.8098,-72 103.5197,-72 126.9395,-72"/>
<polygon fill="#000000" stroke="#000000" points="126.9457,-75.5001 136.9457,-72 126.9457,-68.5001 126.9457,-75.5001"/>
<text text-anchor="middle" x="95.7125" y="-76.2" font-family="Times,serif" font-size="14.00" fill="#000000">tokenize</text>
</g>
<!-- Script -->
<g id="node5" class="node">
<title>Script</title>
<polygon fill="none" stroke="#000000" points="334.4349,-90 280.4349,-90 280.4349,-54 334.4349,-54 334.4349,-90"/>
<text text-anchor="middle" x="307.4349" y="-67.8" font-family="Times,serif" font-size="14.00" fill="#000000">Script</text>
</g>
<!-- Token[]&#45;&gt;Script -->
<g id="edge3" class="edge">
<title>Token[]-&gt;Script</title>
<path fill="none" stroke="#000000" d="M198.5755,-72C219.6187,-72 247.6903,-72 270.0565,-72"/>
<polygon fill="#000000" stroke="#000000" points="270.2031,-75.5001 280.2031,-72 270.203,-68.5001 270.2031,-75.5001"/>
<text text-anchor="middle" x="231.2806" y="-76.2" font-family="Times,serif" font-size="14.00" fill="#000000">parse</text>
</g>
<!-- Script&#45;&gt;Chat -->
<g id="edge4" class="edge">
<title>Script-&gt;Chat</title>
<path fill="none" stroke="#000000" d="M334.5332,-72C347.5056,-72 363.2488,-72 377.3461,-72"/>
<polygon fill="#000000" stroke="#000000" points="377.7324,-75.5001 387.7324,-72 377.7323,-68.5001 377.7324,-75.5001"/>
</g>
<!-- builtinFuncs -->
<g id="node6" class="node">
<title>builtinFuncs</title>
<polygon fill="none" stroke="#000000" points="350.4391,-36 264.4307,-36 264.4307,0 350.4391,0 350.4391,-36"/>
<text text-anchor="middle" x="307.4349" y="-13.8" font-family="Times,serif" font-size="14.00" fill="#000000">builtinFuncs</text>
</g>
<!-- builtinFuncs&#45;&gt;Chat -->
<g id="edge5" class="edge">
<title>builtinFuncs-&gt;Chat</title>
<path fill="none" stroke="#000000" d="M343.492,-36.1314C354.7263,-41.7806 367.1194,-48.0126 378.3798,-53.6749"/>
<polygon fill="#000000" stroke="#000000" points="377.0154,-56.9064 387.5219,-58.272 380.1602,-50.6526 377.0154,-56.9064"/>
</g>
<!-- User&#45;&gt;Chat -->
<g id="edge7" class="edge">
<title>User-&gt;Chat</title>
<path fill="none" stroke="#000000" d="M478.5383,-78.2442C470.2615,-78.7287 461.0214,-78.8651 452.202,-78.6535"/>
<polygon fill="#000000" stroke="#000000" points="452.2585,-75.153 442.125,-78.2453 451.9751,-82.1473 452.2585,-75.153"/>
</g>
</g>
</svg>